# xmcd
#
# Track frame offsets:
#	188
#	21936
#	39445
#	56424
#	78309
#	97355
#	115073
#	138095
#	153780
#	168866
#	185549
#	198673
#
# Disc length: 2920 seconds
#
# Revision: 0
# Processed by: cddbd v1.5.2PL0 Copyright (c) Steve Scherf et al.
# Submitted via: EZCDAudioConverter 6.0.9.1
#
DISCID=960b660c
DTITLE=Antti Reini and Maapallon Maitolaiturit - Kärpänen
DYEAR=2016
DGENRE=
TTITLE0=Oranssi
TTITLE1=Sydän Joka Lyö
TTITLE2=Se Riittää
TTITLE3=Kulkija
TTITLE4=Kärpänen
TTITLE5=Buddha
TTITLE6=Tuulee
TTITLE7=Joku Päivä
TTITLE8=Ikkuna
TTITLE9=Arjen Harmauteen
TTITLE10=Tänä Yönä
TTITLE11=Mitä Sulle Kuuluu
EXTD=
EXTT0=
EXTT1=
EXTT2=
EXTT3=
EXTT4=
EXTT5=
EXTT6=
EXTT7=
EXTT8=
EXTT9=
EXTT10=
EXTT11=
PLAYORDER=
